<?xml version="1.0" standalone="no"?>
<!DOCTYPE svg PUBLIC "-//W3C//DTD SVG 1.1//EN" "http://www.w3.org/Graphics/SVG/1.1/DTD/svg11.dtd" >
<svg xmlns="http://www.w3.org/2000/svg">
<metadata></metadata>
<defs>
<font id="chicagoflfregular" horiz-adv-x="1366" >
<font-face units-per-em="2048" ascent="1638" descent="-410" />
<missing-glyph horiz-adv-x="655" />
<glyph horiz-adv-x="2048" />
<glyph horiz-adv-x="2048" />
<glyph horiz-adv-x="682" />
<glyph horiz-adv-x="1081" d="M119 1534q98 -98 204.5 -146.5t213.5 -48.5q109 0 214 49.5t201 145.5l-116 113q-68 -68 -145 -103t-156 -35q-78 0 -155 34t-147 104z" />
<glyph horiz-adv-x="681" d="M178 1401h340v340h-340v-340z" />
<glyph horiz-adv-x="854" d="M109 1663q0 -66 24.5 -123t67.5 -100t100 -68.5t123 -25.5t123 25.5t100 68.5t67.5 100t24.5 123q0 63 -24.5 120.5t-67.5 99.5t-100 66.5t-123 24.5t-123 -24.5t-100 -66.5t-67.5 -99.5t-24.5 -120.5zM246 1663q0 37 14 68.5t38 55t56.5 38t69.5 14.5t68.5 -14.5t55 -38 t38 -55t14.5 -68.5t-14.5 -69.5t-38 -57.5t-55 -39t-68.5 -14q-74 0 -126 53t-52 127z" />
<glyph unicode="&#xa;" horiz-adv-x="909" d="M147 1391h160l121 368h-158zM481 1391h158l123 368h-162z" />
<glyph horiz-adv-x="681" d="M188 0v-125q0 -86 18.5 -136t60.5 -78t110.5 -36t167.5 -8v141q-72 0 -116 20.5t-44 94.5v127h-197z" />
<glyph horiz-adv-x="1081" d="M152 1753l393 -395l422 420h-211l-201 -207l-182 182h-221z" />
<glyph unicode="&#xd;" horiz-adv-x="681" d="M172 0h340v1194h-340v-1194z" />
<glyph horiz-adv-x="1480" d="M74 -145l1188 1781h196l-1186 -1781h-198z" />
<glyph horiz-adv-x="1648" d="M172 1028h170v-1028h340v1028h172v170h-172v176h342v178h-494q-37 0 -71.5 -15t-60 -39.5t-41 -58.5t-15.5 -71v-170h-170v-170zM1139 0h342v1194h-342v-1194zM1139 1366h342v170h-342v-170z" />
<glyph horiz-adv-x="1536" d="M172 1024h170v-1024h340v1024h172v170h-172v172h342v-1366h342v1536h-836q-37 0 -71.5 -14.5t-60 -40t-41 -59t-15.5 -70.5v-158h-170v-170z" />
<glyph horiz-adv-x="1193" d="M39 233l133 134v-367h852v170h-512v481l227 228v221l-227 -228v664h-340v-948l-133 -135v-220z" />
<glyph horiz-adv-x="681" d="M39 233l133 134v-367h340v651l150 150v223l-150 -150v662h-340v-950l-133 -133v-220z" />
<glyph horiz-adv-x="1382" d="M172 0h1038v172h-698v328l698 639v397h-1038v-170h698v-319l-698 -641v-406zM397 1898l314 -315l338 336h-168l-162 -166l-146 145h-176z" />
<glyph horiz-adv-x="1382" d="M172 0h1038v170h-698v68l698 688v268h-1038v-168h698v-43l-698 -692v-291zM315 1753l394 -395l421 420h-210l-201 -207l-182 182h-222z" />
<glyph unicode=" "  horiz-adv-x="655" />
<glyph unicode="&#x09;" horiz-adv-x="655" />
<glyph unicode="&#xa0;" horiz-adv-x="655" />
<glyph unicode="!" horiz-adv-x="1024" d="M342 0h340v342h-340v-342zM342 512h340v1024h-340v-1024z" />
<glyph unicode="&#x22;" horiz-adv-x="1193" d="M342 1026h170v512h-170v-512zM682 1026h172v512h-172v-512z" />
<glyph unicode="#" horiz-adv-x="1533" d="M156 616h219l-86 -317h149l90 317h318l-84 -317h147l90 317h230v172h-185l80 285h260v170h-213l82 297h-149l-82 -297h-324l82 297h-147l-84 -297h-240v-170h191l-76 -285h-268v-172zM573 788l78 285h324l-82 -285h-320z" />
<glyph unicode="$" horiz-adv-x="1193" d="M172 352q0 -74 26.5 -138t72.5 -111.5t107.5 -75t133.5 -27.5v-170h172v170q76 0 139.5 27.5t107.5 76t68.5 113t24.5 135.5v312l-340 276v428q98 0 135 -46t37 -128h168q0 70 -26.5 132.5t-72.5 108.5t-107.5 73.5t-133.5 27.5v176h-172v-176q-72 0 -133.5 -25.5 t-107.5 -67.5t-72.5 -93.5t-26.5 -102.5v-348l340 -274v-453q-78 0 -123 48t-45 132h-172zM344 1210q0 29 10.5 56.5t32 50t53 37t72.5 14.5v-287zM684 172v311l172 -137q0 -90 -45 -132t-127 -42z" />
<glyph unicode="%" horiz-adv-x="1722" d="M172 1239q0 -61 23.5 -116.5t64.5 -97.5t96.5 -65.5t118.5 -23.5t118.5 23.5t96.5 65.5t64.5 97.5t23.5 116.5q0 47 -9 79t-30 73h310l-680 -1391h202l748 1544h-844q-61 0 -116.5 -24.5t-97.5 -65.5t-65.5 -96t-23.5 -119zM315 1239q0 68 47.5 115t112.5 47 q66 0 113 -48t47 -114q0 -31 -12.5 -59.5t-34 -50t-51 -35t-62.5 -13.5t-62.5 12.5t-51 34t-34 50t-12.5 61.5zM942 305q0 -63 23.5 -118.5t65.5 -97.5t97.5 -65.5t118.5 -23.5t118.5 23.5t97.5 65.5t65.5 97.5t23.5 118.5t-23.5 118.5t-65.5 96.5t-97.5 65.5t-118.5 24.5 t-118.5 -24.5t-97.5 -65.5t-65.5 -96t-23.5 -119zM1083 305q0 70 47.5 118t116.5 48q68 0 117 -48t49 -118q0 -33 -13.5 -62.5t-37 -51t-53 -35t-62.5 -13.5q-68 0 -116 48t-48 114z" />
<glyph unicode="&#x26;" horiz-adv-x="1726" d="M172 352q0 -72 24.5 -136t69.5 -112.5t108.5 -76t141.5 -27.5h322q74 0 138 25.5t110.5 71.5t73 111.5t26.5 143.5v338q33 0 94 19.5t122.5 74t106.5 152.5t45 258h-170q0 -90 -19 -154.5t-77.5 -104.5t-164 -58.5t-275.5 -18.5v-688h-340v700h166v170h-166v324h340v-324 h338v146q0 80 -26.5 144.5t-73 110.5t-111 70.5t-137.5 24.5h-322q-78 0 -141.5 -28.5t-108.5 -76t-69.5 -112t-24.5 -133.5q0 -86 27.5 -137.5t60.5 -79t60 -35.5l28 -8l-28 -16q-27 -17 -60 -54t-60.5 -98.5t-27.5 -151.5v-254z" />
<glyph unicode="'" horiz-adv-x="512" d="M172 1024h170v514h-170v-514z" />
<glyph unicode="(" horiz-adv-x="856" d="M172 109l340 -345h172v173h-172v1536h172v167h-172l-340 -337v-1194z" />
<glyph unicode=")" horiz-adv-x="856" d="M172 -63v-173h172l340 345v1194l-340 337h-172v-167h172v-1536h-172z" />
<glyph unicode="*" horiz-adv-x="1261" d="M141 934l84 -152l307 181v-357h168v357l308 -181l84 152l-308 182l308 182l-84 146l-308 -176v358h-168v-358l-307 176l-84 -146l308 -182z" />
<glyph unicode="+" horiz-adv-x="1255" d="M188 680h342v-342h168v342h342v174h-342v340h-168v-340h-342v-174z" />
<glyph unicode="," horiz-adv-x="681" d="M172 0h166v-121l-135 -133v-92h135l174 168v520h-340v-342z" />
<glyph unicode="-" horiz-adv-x="1193" d="M172 680h852v174h-852v-174z" />
<glyph unicode="." horiz-adv-x="681" d="M172 0h340v342h-340v-342z" />
<glyph unicode="/" horiz-adv-x="1198" d="M172 -8h170l684 1648h-170z" />
<glyph unicode="0" d="M172 346q0 -70 28.5 -132t76 -110.5t110.5 -76t133 -27.5h326q70 0 132 27.5t110.5 76t77 110.5t28.5 132v844q0 66 -28.5 128t-77 110.5t-111 78t-131.5 29.5h-326q-70 0 -133 -29.5t-110.5 -78t-76 -111t-28.5 -127.5v-844zM512 172v1194h342v-1194h-342z" />
<glyph unicode="1" d="M342 1194l170 174v-1368h342v1536h-342l-170 -168v-174z" />
<glyph unicode="2" d="M172 0h1022v170h-678v86l678 692v238q0 68 -29.5 130t-80 111.5t-114 79t-130.5 29.5h-316q-68 0 -131 -28.5t-112.5 -76t-79 -108.5t-29.5 -129h166q0 35 16.5 66.5t43 55t59 38t67.5 14.5h330v-432l-682 -698v-238z" />
<glyph unicode="3" horiz-adv-x="1363" d="M164 346q0 -66 29.5 -128t79 -110.5t113 -78t130.5 -29.5h330q66 0 128 29.5t110.5 78t78 111t29.5 127.5v352q0 66 -29.5 124.5t-78 103.5t-111 70.5t-127.5 25.5h-98l444 344v168h-1020v-168h621l-431 -348v-164h490v-684h-336q-82 0 -132 49t-50 127h-170z" />
<glyph unicode="4" d="M172 512h682v-512h340v512h172v168h-172v856h-340l-682 -680v-344zM342 680v72l512 512v-584h-512z" />
<glyph unicode="5" d="M172 346q0 -66 29.5 -128t79 -110.5t113 -78t130.5 -29.5h324q66 0 128 29.5t110.5 78t78 111t29.5 127.5v326q0 63 -29.5 126.5t-78 113t-111 80t-127.5 30.5h-336v344h674v170h-1014v-682h682v-684h-330q-82 0 -134 49t-52 127h-166z" />
<glyph unicode="6" d="M172 346q0 -70 28.5 -132t76 -110.5t111 -76t132.5 -27.5h326q70 0 132 27.5t110.5 76t77 110.5t28.5 132v326q0 63 -28.5 126.5t-77 113t-111 80t-131.5 30.5h-334v72l276 272h246v170h-354l-508 -506v-684zM512 170v684h342v-684h-342z" />
<glyph unicode="7" d="M172 1366h682v-428l-354 -356v-582h340v565l354 361v610h-1022v-170z" />
<glyph unicode="8" horiz-adv-x="1361" d="M172 346q0 -70 24.5 -133t69.5 -112.5t109.5 -78t142.5 -28.5h318q74 0 139 25.5t112.5 72.5t75 111.5t27.5 142.5v170q0 74 -28.5 122t-62.5 76.5t-63 39.5l-28 12l28 10q29 10 63 36t62.5 72t28.5 117v189q0 78 -27.5 142.5t-75 109.5t-113 69.5t-138.5 24.5h-318 q-78 0 -142.5 -27.5t-109.5 -75t-69.5 -109.5t-24.5 -134v-189q0 -72 27.5 -117.5t60.5 -71.5t60 -36l28 -10l-28 -10q-27 -11 -60 -38.5t-60.5 -76.5t-27.5 -125v-170zM512 172v510h336v-510h-336zM512 854v512h336v-512h-336z" />
<glyph unicode="9" d="M172 860q0 -86 27.5 -150.5t75 -109.5t111 -67.5t134.5 -22.5h334v-68l-279 -272h-233v-170h348l504 510v676q0 74 -23.5 137t-68.5 110.5t-107.5 75t-142.5 27.5h-332q-80 0 -144.5 -27.5t-109.5 -75t-69.5 -110.5t-24.5 -137v-326zM512 682v686h342v-686h-342z" />
<glyph unicode=":" horiz-adv-x="681" d="M172 0h340v342h-340v-342zM172 854h340v340h-340v-340z" />
<glyph unicode=";" horiz-adv-x="681" d="M172 0h166v-121l-135 -133v-92h135l174 168v520h-340v-342zM172 854h340v340h-340v-340z" />
<glyph unicode="&#x3c;" horiz-adv-x="1024" d="M119 770l481 -512h342l-481 512l481 512h-342z" />
<glyph unicode="=" d="M172 512h1022v170h-1022v-170zM172 854h1022v170h-1022v-170z" />
<glyph unicode="&#x3e;" horiz-adv-x="1024" d="M119 258h342l481 512l-481 512h-342l481 -512z" />
<glyph unicode="?" horiz-adv-x="1361" d="M172 1186h166q0 35 16.5 67.5t43 58t59 41t67.5 15.5h330v-246l-342 -370v-222h342v203l336 371v82q0 68 -31 130t-81 111.5t-113.5 79t-128.5 29.5h-312q-66 0 -129 -29.5t-112.5 -79t-80 -112t-30.5 -129.5zM512 0h342v342h-342v-342z" />
<glyph unicode="@" horiz-adv-x="1875" d="M172 420q0 -90 35 -168t95 -135.5t139 -90t165 -32.5h760v184h-711q-139 0 -226 74t-87 217v432q0 61 21.5 114.5t59.5 93.5t90 62.5t112 22.5h624q59 0 111.5 -22.5t91.5 -62.5t61.5 -93t22.5 -115v-270q0 -49 -30 -84t-79 -35h-159v512h-502q-35 0 -67.5 -13.5 t-58.5 -37t-41 -55t-15 -66.5v-328q0 -78 52 -130t130 -52h764q37 0 69.5 16.5t56 42t38 56t14.5 61.5v440q0 80 -39 154t-100.5 130t-139 90t-157.5 34h-690q-74 0 -148 -33t-132 -89t-94 -133t-36 -163v-528zM756 598v180q0 78 80 78h262v-344h-262q-39 0 -59.5 25.5 t-20.5 60.5z" />
<glyph unicode="A" d="M178 0h340v682h336v-682q16 -2 64 -2h100q55 0 105.5 1t72.5 1v1190q0 68 -33 130t-83 110.5t-113.5 77t-124.5 28.5h-316q-59 0 -121.5 -28.5t-112.5 -76t-82 -111t-32 -130.5v-1190zM518 856v512h336v-512h-336z" />
<glyph unicode="B" d="M199 0h678q78 0 141 28.5t108 76t70 111t25 130.5v174q0 70 -28 118t-60.5 77.5t-60.5 42.5l-28 12l28 10q28 11 60.5 36.5t60.5 72.5t28 121v182q0 78 -28 141.5t-74 108.5t-109.5 69.5t-132.5 24.5h-678v-1536zM539 172v512h342v-512h-342zM539 856v512h342v-512h-342z " />
<glyph unicode="C" d="M203 354q0 -78 25.5 -143.5t71.5 -112.5t111.5 -72.5t143.5 -25.5h324q74 0 136 25.5t109 71.5t74 109.5t27 139.5h-168q0 -39 -14.5 -71.5t-39 -55t-57.5 -36t-67 -13.5h-336v1196h336q80 0 129 -46t49 -128h168q0 78 -27 141.5t-74 108.5t-109 69.5t-136 24.5h-324 q-78 0 -143.5 -28.5t-111.5 -77t-71.5 -113t-25.5 -133.5v-830z" />
<glyph unicode="D" d="M172 0h674q68 0 131 28.5t111.5 76t77 111t28.5 132.5v840q0 70 -28.5 133t-77 111.5t-112 76t-130.5 27.5h-674v-1536zM512 172v1194h342v-1194h-342z" />
<glyph unicode="E" horiz-adv-x="1193" d="M172 0h852v172h-512v510h342v174h-342v510h512v170h-852v-1536z" />
<glyph unicode="F" horiz-adv-x="1193" d="M172 0h340v682h342v172h-342v512h512v170h-852v-1536z" />
<glyph unicode="G" d="M172 348q0 -72 26.5 -135t73.5 -110.5t109.5 -75t136.5 -27.5h328q78 0 141.5 28.5t109.5 76t71.5 111t25.5 132.5v510h-512v-174h172v-512h-342v1194h377q63 0 100 -46t37 -130h168q0 66 -28.5 128t-78 110.5t-113 78t-130.5 29.5h-326q-72 0 -135.5 -29.5t-110.5 -79 t-73.5 -112t-26.5 -127.5v-840z" />
<glyph unicode="H" d="M172 0h340v682h342v-682h340v1536h-340v-680h-342v680h-340v-1536z" />
<glyph unicode="I" horiz-adv-x="1024" d="M342 0h340v1536h-340v-1536z" />
<glyph unicode="J" horiz-adv-x="1193" d="M0 346q0 -70 28.5 -132t77 -110.5t112 -76t134.5 -27.5h322q70 0 133 27.5t111.5 76t77 110.5t28.5 132v1190h-342v-1366h-340v496h-342v-320z" />
<glyph unicode="K" horiz-adv-x="1536" d="M172 0h340v518l512 -518h342l-776 801l776 735h-342l-512 -516v516h-340v-1536z" />
<glyph unicode="L" horiz-adv-x="1193" d="M172 0h852v170h-512v1366h-340v-1536z" />
<glyph unicode="M" horiz-adv-x="2048" d="M172 0h170v954l616 -610l578 610v-954h340v1536h-78l-772 -758l-774 758h-80v-1536z" />
<glyph unicode="N" horiz-adv-x="1536" d="M172 0h170v897l942 -897h82v1536h-172v-889l-942 889h-80v-1536z" />
<glyph unicode="O" d="M172 346q0 -70 28.5 -132t77 -110.5t110.5 -76t132 -27.5h326q70 0 132 27.5t110.5 76t77 110.5t28.5 132v844q0 66 -27.5 128t-75 110.5t-110.5 78t-135 29.5h-326q-72 0 -135 -29.5t-110.5 -78t-75 -111t-27.5 -127.5v-844zM512 172v1194h342v-1194h-342z" />
<glyph unicode="P" d="M172 0h340v682h342q72 0 133.5 29.5t107.5 78t72.5 110t26.5 124.5v170q0 74 -28.5 136.5t-77 108.5t-109.5 71.5t-125 25.5h-682v-1536zM512 852v514h342v-514h-342z" />
<glyph unicode="Q" d="M172 346q0 -82 26.5 -146.5t72.5 -108.5t109.5 -67.5t139.5 -23.5h334v-178h340v178h-266q53 8 101 34.5t85 69.5t58.5 103.5t21.5 138.5v844q0 74 -25.5 136.5t-71.5 109.5t-110.5 73.5t-142.5 26.5h-332q-80 0 -142.5 -29.5t-106.5 -78t-67.5 -111t-23.5 -127.5v-844z M512 172v1194h342v-1194h-342z" />
<glyph unicode="R" d="M172 0h340v682h342v-682h340v475q0 88 -28.5 144.5t-62.5 90t-63 46.5l-28 14l28 10q29 11 63 40.5t62.5 83.5t28.5 143v147q0 76 -23.5 139.5t-68.5 108.5t-107.5 69.5t-140.5 24.5h-682v-1536zM512 856v512h342v-512h-342z" />
<glyph unicode="S" horiz-adv-x="1189" d="M172 346q0 -72 27.5 -134t76 -109.5t113 -75t137.5 -27.5h144q78 0 142.5 27.5t110.5 76t71.5 110.5t25.5 132v125q0 61 -38 126t-94.5 127t-122 121.5t-121.5 112t-94 95.5t-38 73v242h135q98 0 152.5 -46t54.5 -128h168q0 70 -27.5 132.5t-76 108.5t-112 73.5 t-134.5 27.5h-146q-74 0 -138 -26.5t-112.5 -73.5t-76 -109.5t-27.5 -136.5v-123q0 -55 38 -113.5t94 -118t123 -118t123 -111.5t94 -101t38 -85v-250h-156q-82 0 -132 49t-50 127h-172z" />
<glyph unicode="T" horiz-adv-x="1024" d="M0 1366h342v-1366h340v1366h342v170h-1024v-170z" />
<glyph unicode="U" d="M172 346q0 -66 27.5 -128t75 -110.5t111 -78t134.5 -29.5h326q72 0 135 29.5t110.5 78t75 111t27.5 127.5v1190h-340v-1366h-342v1366h-340v-1190z" />
<glyph unicode="V" d="M172 0h590l432 428v1108h-340v-1194l-170 -170h-172v1364h-340v-1536z" />
<glyph unicode="W" horiz-adv-x="2048" d="M172 0h1264l440 442v1094h-340v-1190l-178 -174h-164v1364h-340v-1364h-342v1364h-340v-1536z" />
<glyph unicode="X" d="M172 0h340v682h342v-682h340v512q0 78 -28.5 128t-62.5 79t-63 40l-28 11l28 9q29 9 63 37t62.5 78t28.5 130v512h-340v-680h-342v680h-340v-512q0 -80 27.5 -130t60.5 -78t60 -37l28 -9l-28 -10q-27 -10 -60 -38t-60.5 -78t-27.5 -132v-512z" />
<glyph unicode="Y" d="M172 1026l340 -338v-688h342v688l340 338v510h-340v-600l-172 -170l-170 170v600h-340v-510z" />
<glyph unicode="Z" horiz-adv-x="1382" d="M172 0h1038v172h-698v328l698 639v397h-1038v-170h698v-319l-698 -641v-406z" />
<glyph unicode="[" horiz-adv-x="854" d="M172 -244h510v170h-170v1538h170v170h-510v-1878z" />
<glyph unicode="\" horiz-adv-x="1312" d="M188 1638l752 -1810h186l-751 1810h-187z" />
<glyph unicode="]" horiz-adv-x="854" d="M172 -74v-170h510v1878h-510v-170h170v-1538h-170z" />
<glyph unicode="^" horiz-adv-x="1388" d="M270 1026h168l269 342l268 -342h170l-438 555z" />
<glyph unicode="_" d="M0 0h1366v172h-1366v-172z" />
<glyph unicode="`" horiz-adv-x="942" d="M252 1638l289 -342h170l-289 342h-170z" />
<glyph unicode="a" d="M172 352q0 -80 27.5 -145.5t75 -111.5t109.5 -70.5t132 -24.5h678v844q0 66 -24.5 129t-70.5 112.5t-111.5 79t-147.5 29.5h-316q-180 0 -266 -85t-86 -216h166q0 66 42 98.5t148 32.5h326v-172h-338q-66 0 -127 -24.5t-109.5 -67.5t-78 -100.5t-29.5 -124.5v-183z M512 172v510h342v-510h-342z" />
<glyph unicode="b" d="M172 0h672q82 0 147.5 29.5t110.5 78t68.5 111t23.5 127.5v500q0 68 -25.5 130t-72.5 110.5t-111.5 78t-140.5 29.5h-332v342h-340v-1536zM512 172v852h342v-852h-342z" />
<glyph unicode="c" horiz-adv-x="1204" d="M172 352q0 -68 29.5 -131t78 -112.5t111 -79t127.5 -29.5h162q66 0 129 31.5t113.5 82t81 116t30.5 132.5h-170q0 -37 -14 -70.5t-40 -60t-60.5 -43t-73.5 -16.5h-164v854h164q39 0 72.5 -17.5t59.5 -45t41 -61.5t15 -68h170q0 68 -30.5 133t-81 115.5t-114 81 t-128.5 30.5h-162q-66 0 -127 -29.5t-110.5 -79t-79 -113t-29.5 -128.5v-492z" />
<glyph unicode="d" d="M172 346q0 -66 30.5 -128t80 -110.5t113 -78t128.5 -29.5h670v1536h-340v-342h-330q-66 0 -129 -29.5t-112.5 -78t-80 -111t-30.5 -129.5v-500zM512 172v852h342v-852h-342z" />
<glyph unicode="e" horiz-adv-x="1361" d="M172 352q0 -63 27.5 -126.5t75 -114t109.5 -81t134 -30.5h318q66 0 129 27.5t113 76t81 109.5t31 129h-168q0 -37 -16.5 -67.5t-43 -53t-61.5 -36t-72 -13.5h-317v340h678v332q0 66 -27.5 129t-75 112.5t-113 79t-138.5 29.5h-318q-70 0 -132 -29.5t-110.5 -79t-76 -113 t-27.5 -128.5v-492zM512 682v344h336v-344h-336z" />
<glyph unicode="f" horiz-adv-x="1024" d="M172 1028h170v-1028h340v1028h172v170h-172v176h342v178h-494q-37 0 -71.5 -15t-60 -39.5t-41 -58.5t-15.5 -71v-170h-170v-170z" />
<glyph unicode="g" d="M172 -74q0 -74 27.5 -136t75 -106t112 -70t137.5 -26h316q76 0 140 23.5t112.5 68t75 111t26.5 152.5v1255h-670q-78 0 -142.5 -29.5t-110.5 -79t-72.5 -112t-26.5 -129.5v-445q0 -68 23.5 -131t69.5 -110t110.5 -76t148.5 -29h330v-297h-326q-35 0 -69.5 13.5t-61 36 t-43 52t-16.5 64.5h-166zM512 229v797h342v-797h-342z" />
<glyph unicode="h" d="M172 0h340v1026h342v-1026h340v846q0 72 -26.5 135t-73.5 110.5t-111.5 75t-138.5 27.5h-332v342h-340v-1536z" />
<glyph unicode="i" horiz-adv-x="681" d="M172 0h340v1194h-340v-1194zM172 1366h340v170h-340v-170z" />
<glyph unicode="j" horiz-adv-x="1030" d="M0 -72q0 -66 29.5 -127t79 -108t113 -76t130.5 -29h154q59 0 122.5 28t115 74t84 106t32.5 126v1272h-342v-1436h-158q-74 0 -131 43t-57 127h-172zM518 1366h342v170h-342v-170z" />
<glyph unicode="k" horiz-adv-x="1363" d="M172 0h340v342l348 -350h332l-594 606l594 596h-334l-346 -348v690h-340v-1536z" />
<glyph unicode="l" horiz-adv-x="681" d="M172 0h340v1536h-340v-1536z" />
<glyph unicode="m" horiz-adv-x="2048" d="M172 0h340v1024h342v-1024h340v1024h342v-1024h340v846q0 68 -27.5 130t-75 110.5t-111 78t-132.5 29.5h-1358v-1194z" />
<glyph unicode="n" d="M172 0h340v1024h342v-1024h340v844q0 66 -27.5 129t-76 112.5t-112.5 79t-138 29.5h-668v-1194z" />
<glyph unicode="o" d="M172 352q0 -74 25.5 -138t71.5 -111.5t109.5 -75t141.5 -27.5h324q78 0 142.5 27.5t110.5 75t71.5 112t25.5 137.5v492q0 70 -25.5 133t-71.5 111.5t-110.5 77t-142.5 28.5h-324q-74 0 -137.5 -28.5t-110.5 -77t-73.5 -112t-26.5 -132.5v-492zM512 172v852h342v-852h-342 z" />
<glyph unicode="p" d="M172 -342h340v342h332q80 0 144.5 30.5t110.5 81t70.5 114t24.5 126.5v492q0 68 -26.5 130t-73.5 111.5t-111.5 79t-138.5 29.5h-672v-1536zM512 172v852h342v-852h-342z" />
<glyph unicode="q" d="M172 346q0 -63 30.5 -124.5t80 -111t113 -80t128.5 -30.5h330v-342h340v1536h-670q-66 0 -129 -29.5t-112.5 -78t-80 -111t-30.5 -129.5v-500zM512 170v856h342v-856h-342z" />
<glyph unicode="r" horiz-adv-x="1024" d="M172 0h340v838l37 30q37 29 104.5 64t161.5 64.5t209 29.5v168q-129 0 -224 -26.5t-160 -57.5t-96 -58l-32 -26v168h-340v-1194z" />
<glyph unicode="s" horiz-adv-x="1189" d="M172 342q0 -72 27.5 -133.5t76 -108.5t113 -73.5t137.5 -26.5h144q78 0 142.5 27.5t110.5 76t71.5 110.5t25.5 132v129l-508 434v115h168q78 0 125 -46t47 -124h168q0 70 -27.5 131.5t-76 107.5t-112 73.5t-134.5 27.5h-144q-74 0 -138 -20.5t-112.5 -60.5t-76 -96 t-27.5 -126v-119l510 -465v-137h-156q-82 0 -132 47t-50 125h-172z" />
<glyph unicode="t" horiz-adv-x="1017" d="M172 1024h164v-836q0 -37 15.5 -70.5t41 -60t60 -42t71.5 -15.5h322v172h-170v852h170v170h-170v342h-340v-342h-164v-170z" />
<glyph unicode="u" d="M172 346q0 -72 26.5 -135.5t75 -110.5t112.5 -73.5t138 -26.5h670v1194h-340v-1024h-342v1024h-340v-848z" />
<glyph unicode="v" d="M172 0h586l436 442v752h-340v-832l-190 -192h-152v1024h-340v-1194z" />
<glyph unicode="w" horiz-adv-x="2048" d="M172 0h1255l449 451v743h-340v-848l-178 -174h-164v1022h-340v-1022h-342v1022h-340v-1194z" />
<glyph unicode="x" d="M172 0h340v512h342v-512h340v223q0 113 -28.5 186.5t-62.5 114.5t-63 58l-28 16l28 16q29 17 63 55t62.5 100t28.5 153v272h-340v-510h-342v510h-340v-272q0 -90 27.5 -152.5t60.5 -100.5t60 -55l28 -16l-28 -16q-27 -17 -60 -58t-60.5 -114.5t-27.5 -186.5v-223z" />
<glyph unicode="y" d="M172 -70q0 -66 30.5 -127t80 -108t113 -76t128.5 -29h316q66 0 129 31t113.5 80t81 112.5t30.5 129.5v1251h-340v-952h-342v952h-340v-776q0 -68 27.5 -130.5t76 -109.5t112 -75.5t136.5 -28.5h330v-312h-326q-35 0 -69.5 13.5t-61 36t-43 53.5t-16.5 65h-166z" />
<glyph unicode="z" horiz-adv-x="1382" d="M172 0h1038v170h-698v68l698 688v268h-1038v-168h698v-43l-698 -692v-291z" />
<glyph unicode="{" horiz-adv-x="854" d="M172 664l170 -172v-465q0 -342 340 -342v170q-94 0 -132 47t-38 125v505l-129 130l129 126v500q0 78 38 128t132 50v172q-174 0 -257 -94t-83 -256v-454z" />
<glyph unicode="|" horiz-adv-x="854" d="M342 -170h170v1819h-170v-1819z" />
<glyph unicode="}" horiz-adv-x="854" d="M172 -145v-174q174 0 257 94t83 258v454l170 168l-170 172v465q0 342 -340 342v-168q94 0 132 -47t38 -127v-504l129 -126l-129 -130v-499q0 -80 -38 -129t-132 -49z" />
<glyph unicode="~" horiz-adv-x="1368" d="M172 858h170q0 80 53.5 123t120.5 43q59 0 96 -25.5t71 -57.5t74 -57.5t103 -25.5q78 0 140.5 25.5t106.5 70.5t67.5 106.5t23.5 133.5h-172q0 -78 -42 -122t-128 -44q-45 0 -80 25.5t-70.5 57.5t-78 57.5t-101.5 25.5q-80 0 -144.5 -24.5t-111.5 -68.5t-72.5 -106.5 t-25.5 -136.5z" />
<glyph unicode="&#xa1;" horiz-adv-x="1024" d="M356 -307h340v1024h-340v-1024zM356 887h340v342h-340v-342z" />
<glyph unicode="&#xa2;" horiz-adv-x="1193" d="M172 563q0 -190 86 -300.5t254 -110.5v-164h170v164q102 0 169 34.5t104.5 93t53 134t15.5 157.5h-170q0 -47 -3 -89t-18.5 -75.5t-51.5 -53t-99 -19.5v723q59 0 93 -22.5t51.5 -57.5t22.5 -78t5 -84h170q0 80 -17.5 156t-58.5 135t-106.5 95t-159.5 36v172h-170v-172 q-88 0 -151.5 -30.5t-105.5 -85t-62.5 -129t-20.5 -165.5v-264zM342 571v244q0 55 6 100.5t24.5 77t51.5 48t88 16.5v-723q-55 0 -89 14t-52.5 44t-23.5 75t-5 104z" />
<glyph unicode="&#xa3;" horiz-adv-x="1536" d="M172 0h1002q39 0 72.5 15.5t58 42t39 61.5t14.5 74v169h-164v-79q0 -35 -14.5 -59.5t-49 -38t-102.5 -13.5h-346v510h172v172h-172v559h215q43 0 68.5 -12t38 -35t16.5 -53.5t4 -67.5h170v158q0 76 -54.5 131t-135.5 55h-467q-88 0 -141.5 -56t-53.5 -134v-545h-170v-172 h170v-510h-170v-172z" />
<glyph unicode="&#xa4;" horiz-adv-x="1193" d="M178 416l94 -97l117 115q41 -27 94.5 -45t118.5 -18q70 0 123 19.5t102 47.5l117 -119l96 99l-120 119q31 47 50 98t19 119q0 66 -18.5 117t-48.5 96l118 118l-96 97l-117 -117q-35 29 -94 51.5t-131 22.5q-66 0 -123 -20.5t-92 -47.5l-113 111l-94 -97l109 -110 q-29 -41 -49.5 -97.5t-20.5 -123.5q0 -70 21.5 -125.5t50.5 -100.5zM360 754q0 51 19.5 95t52.5 76.5t77 52t93 19.5q51 0 95 -19.5t77 -52t52.5 -76.5t19.5 -95t-19.5 -95.5t-52.5 -77t-77 -51t-95 -18.5q-49 0 -93 18.5t-77 51t-52.5 77t-19.5 95.5z" />
<glyph unicode="&#xa5;" horiz-adv-x="1708" d="M162 1536l340 -342h-330v-170h508v-170h-508v-172h508v-682h340v682h516v172h-516v170h516v170h-272l333 342h-389l-334 -326l-329 326h-383z" />
<glyph unicode="&#xa6;" horiz-adv-x="854" d="M342 0h170v539h-170v-539zM342 936h170v539h-170v-539z" />
<glyph unicode="&#xa7;" horiz-adv-x="1193" d="M172 -74v-153q0 -39 16.5 -73t45 -59.5t65.5 -41t80 -15.5h457q39 0 73.5 15.5t60 41t40 59.5t14.5 73v219q0 41 -25.5 82t-55.5 72.5t-55 51.5l-26 19l26 8q25 8 55 26.5t55.5 49.5t25.5 78v346l-682 569v58q0 37 3 67.5t16.5 53t39 35t68.5 12.5h258q43 0 68.5 -12.5 t39 -35t16.5 -53t3 -67.5h170v157q0 76 -54.5 130.5t-133.5 54.5h-474q-84 0 -137 -54.5t-53 -130.5v-225q0 -51 25.5 -88t56.5 -60.5t56 -34.5l26 -11l-26 -8q-25 -7 -55 -26.5t-55.5 -53t-25.5 -84.5v-343l680 -565v-84q0 -37 -1 -67.5t-12.5 -54t-35 -36t-66.5 -12.5 h-270q-43 0 -68.5 12.5t-39 36t-16.5 54t-3 67.5h-170zM339 747q-3 52 3 102t28.5 87t73.5 37l410 -336q0 -47 1 -97.5t-9 -92t-37 -68.5t-82 -27l-385 314q0 29 -3 81z" />
<glyph unicode="&#xa8;" horiz-adv-x="1056" d="M178 1419h168v170h-168v-170zM709 1419h168v170h-168v-170z" />
<glyph unicode="&#xa9;" horiz-adv-x="1722" d="M70 795q0 -166 62.5 -310.5t170 -252t251.5 -170t308 -62.5q166 0 310.5 62.5t252 170t170 252t62.5 310.5t-62.5 310t-170 251.5t-252 170t-310.5 62.5q-164 0 -308 -62.5t-251.5 -170t-170 -251.5t-62.5 -310zM238 791q0 131 49 245.5t133 199.5t198.5 134t243.5 49 q131 0 246 -49t201 -134t135 -199.5t49 -245.5t-49 -246t-135 -200t-201 -134t-246 -49q-129 0 -243.5 49t-198.5 134t-133 200t-49 246zM537 520q0 -78 52 -115.5t120 -37.5h344q66 0 117 37.5t51 115.5v189h-164v-99q2 -2 4 -19.5t-11.5 -36.5t-58.5 -19h-219 q-47 0 -60.5 19t-10 36.5t5.5 19.5v379q-2 2 -5.5 19.5t10 37t60.5 19.5h219q45 0 58.5 -19.5t11.5 -37t-4 -19.5v-98h164v164q2 35 -11.5 67.5t-36 57t-55.5 40t-71 15.5h-334q-78 0 -128 -54.5t-48 -125.5v-535z" />
<glyph unicode="&#xaa;" horiz-adv-x="1220" d="M170 1327h141q0 31 14.5 52.5t37 37t51 22.5t59.5 7h281v-156h-283q-61 0 -114.5 -25.5t-93.5 -68.5t-62.5 -96t-22.5 -109v-162q0 -55 22.5 -108t61.5 -95t93.5 -68t115.5 -26h571v758q0 55 -23.5 109.5t-63.5 97.5t-94 69.5t-116 26.5h-274q-57 0 -111.5 -19.5 t-96.5 -55t-67.5 -85t-25.5 -106.5zM188 182h854v170h-854v-170zM465 680v467h289v-467h-289z" />
<glyph unicode="&#xab;" horiz-adv-x="1701" d="M100 643l631 -627h281l-625 627l600 596h-287zM635 643l629 -627h280l-624 627l593 596h-276z" />
<glyph unicode="&#xac;" horiz-adv-x="1193" d="M172 682h682v-340h170v512h-852v-172z" />
<glyph unicode="&#xad;" horiz-adv-x="1193" d="M172 680h852v174h-852v-174z" />
<glyph unicode="&#xae;" horiz-adv-x="1722" d="M70 795q0 -166 62.5 -310.5t170 -252t251.5 -170t308 -62.5q166 0 310.5 62.5t252 170t170 252t62.5 310.5t-62.5 310t-170 251.5t-252 170t-310.5 62.5q-164 0 -308 -62.5t-251.5 -170t-170 -251.5t-62.5 -310zM238 791q0 131 49 245.5t133 199.5t198.5 134t243.5 49 q131 0 246 -49t201 -134t135 -199.5t49 -245.5t-49 -246t-135 -200t-201 -134t-246 -49q-129 0 -243.5 49t-198.5 134t-133 200t-49 246zM547 367h151v348h277q39 0 64.5 -19.5t25.5 -60.5v-268h152v284q0 72 -49.5 114t-114.5 42q66 0 117 39t51 115v94q2 35 -11.5 67.5 t-36 57t-55.5 40t-71 15.5h-500v-868zM698 891v174h293q35 0 53.5 -27.5t18.5 -60.5q0 -31 -17.5 -58.5t-54.5 -27.5h-293z" />
<glyph unicode="&#xaf;" horiz-adv-x="1081" d="M190 1401h709v172h-709v-172z" />
<glyph unicode="&#xb0;" horiz-adv-x="1024" d="M164 1239q0 -72 27.5 -135.5t74.5 -110.5t110.5 -74.5t135.5 -27.5q74 0 137.5 27.5t110.5 74.5t74.5 110.5t27.5 135.5q0 74 -27.5 137.5t-74.5 110.5t-110.5 74.5t-137.5 27.5q-72 0 -135.5 -27.5t-110.5 -75.5t-74.5 -111.5t-27.5 -135.5zM334 1239q0 37 14 69.5 t39 57.5t56.5 39t68.5 14t69.5 -14t57.5 -39t39 -57.5t14 -69.5q0 -76 -52 -129t-128 -53t-127 53t-51 129z" />
<glyph unicode="&#xb1;" horiz-adv-x="1193" d="M172 0h852v172h-852v-172zM172 682h340v-340h170v340h342v172h-342v340h-170v-340h-340v-172z" />
<glyph unicode="&#xb2;" horiz-adv-x="829" d="M162 780h510v88h-338v43l338 346v119q0 33 -15.5 63.5t-40 55.5t-56.5 39t-64 14h-158q-35 0 -66.5 -14t-56.5 -37.5t-39 -53.5t-14 -63h82q0 35 29.5 59.5t64.5 24.5h164v-213l-340 -352v-119z" />
<glyph unicode="&#xb3;" horiz-adv-x="849" d="M147 1034q0 -33 14.5 -64.5t39 -56t56.5 -39t67 -14.5h163q33 0 65 14.5t56.5 39t39 56t14.5 64.5v176q0 33 -14.5 61.5t-39 51.5t-56.5 36t-65 13h-49l224 172v84h-510v-84h309l-215 -174v-82h246v-342h-168q-41 0 -67 23.5t-26 64.5h-84z" />
<glyph unicode="&#xb4;" horiz-adv-x="966" d="M272 1296h170l289 342h-170z" />
<glyph unicode="&#xb5;" horiz-adv-x="1708" d="M172 -154v-176q184 0 265 82t81 248h610q51 0 82 20.5t47.5 46t20.5 45.5l4 21l5 -21q5 -20 29.5 -45.5t76 -46t143.5 -20.5v178q-92 0 -131 41t-39 107v868h-342v-1022h-342v1022h-340v-1192q0 -61 -26.5 -94t-58.5 -46.5t-59 -14.5z" />
<glyph unicode="&#xb6;" d="M172 1034q0 -78 25.5 -143.5t71.5 -111.5t110.5 -71.5t140.5 -25.5h162v-682h172v1366h170v-1366h170v1536h-674q-70 0 -132 -26.5t-110.5 -73.5t-77 -109.5t-28.5 -136.5v-156zM360 1040v158q0 72 41 120t127 48h154v-512h-154q-86 0 -127 50t-41 136z" />
<glyph unicode="&#xb7;" horiz-adv-x="681" d="M172 682h340v342h-340v-342z" />
<glyph unicode="&#xb8;" horiz-adv-x="681" d="M162 -242v-141q98 0 166.5 8t109.5 36t59.5 78t18.5 136v125h-197v-127q0 -74 -43 -94.5t-114 -20.5z" />
<glyph unicode="&#xb9;" horiz-adv-x="665" d="M197 1456l84 86v-684h172v768h-172l-84 -84v-86z" />
<glyph unicode="&#xba;" horiz-adv-x="1220" d="M172 844q0 -57 23.5 -110.5t64.5 -94.5t95.5 -65.5t113.5 -24.5h295q61 0 115.5 24.5t95.5 65.5t64.5 94t23.5 111v465q0 55 -23.5 108t-64.5 94t-95.5 67t-115.5 26h-295q-59 0 -113.5 -26t-95.5 -67t-64.5 -94t-23.5 -108v-465zM188 182h854v170h-854v-170zM463 694 v768h313v-768h-313z" />
<glyph unicode="&#xbb;" horiz-adv-x="1701" d="M143 1247l615 -629l-611 -593h271l624 593l-624 629h-275zM676 1247l616 -629l-610 -593h272l621 593l-627 629h-272z" />
<glyph unicode="&#xbc;" horiz-adv-x="1638" d="M80 -8h170l1278 1648h-170zM268 1456l84 86v-684h172v768h-172l-84 -84v-86zM879 256h342v-256h170v256h86v84h-86v428h-170l-342 -340v-172zM965 340v37l256 256v-293h-256z" />
<glyph unicode="&#xbd;" horiz-adv-x="1638" d="M80 -8h170l1278 1648h-170zM268 1456l84 86v-684h172v768h-172l-84 -84v-86zM948 0h510v88h-338v43l338 346v119q0 33 -15.5 63.5t-40 55t-56 39t-64.5 14.5h-158q-35 0 -66.5 -14.5t-56 -38t-39 -53t-14.5 -62.5h82q0 35 30 59.5t64 24.5h164v-213l-340 -352v-119z" />
<glyph unicode="&#xbe;" horiz-adv-x="1638" d="M80 -8h170l1278 1648h-170zM147 1034q0 -33 14.5 -64.5t39 -56t56.5 -39t67 -14.5h163q33 0 65 14.5t56.5 39t39 56t14.5 64.5v176q0 33 -14.5 61.5t-39 51.5t-56.5 36t-65 13h-49l224 172v84h-510v-84h309l-215 -174v-82h246v-342h-168q-41 0 -67 23.5t-26 64.5h-84z M879 256h342v-256h170v256h86v84h-86v428h-170l-342 -340v-172zM965 340v37l256 256v-293h-256z" />
<glyph unicode="&#xbf;" d="M193 43q0 -68 30.5 -130.5t80.5 -111.5t113.5 -78.5t131.5 -29.5h311q66 0 129.5 29.5t112.5 78.5t79.5 111.5t30.5 130.5h-168q0 -35 -16 -67.5t-41.5 -58.5t-59.5 -41t-67 -15h-330v245l342 371v221h-342v-202l-337 -371v-82zM530 887h342v342h-342v-342z" />
<glyph unicode="&#xc0;" d="M178 0h340v682h336v-682q16 -2 64 -2h100q55 0 105.5 1t72.5 1v1190q0 68 -33 130t-83 110.5t-113.5 77t-124.5 28.5h-316q-59 0 -121.5 -28.5t-112.5 -76t-82 -111t-32 -130.5v-1190zM483 1796l185 -188h143l-184 188h-144zM518 856v512h336v-512h-336z" />
<glyph unicode="&#xc1;" d="M178 0h340v682h336v-682q16 -2 64 -2h100q55 0 105.5 1t72.5 1v1190q0 68 -33 130t-83 110.5t-113.5 77t-124.5 28.5h-316q-59 0 -121.5 -28.5t-112.5 -76t-82 -111t-32 -130.5v-1190zM518 856v512h336v-512h-336zM596 1608h143l185 188h-144z" />
<glyph unicode="&#xc2;" d="M178 0h340v682h336v-682q16 -2 64 -2h100q55 0 105.5 1t72.5 1v1190q0 68 -33 130t-83 110.5t-113.5 77t-124.5 28.5h-316q-59 0 -121.5 -28.5t-112.5 -76t-82 -111t-32 -130.5v-1190zM412 1616h137l131 133l133 -133h139l-272 270zM518 856v512h336v-512h-336z" />
<glyph unicode="&#xc3;" d="M178 0h340v682h336v-682q16 -2 64 -2h100q55 0 105.5 1t72.5 1v1190q0 68 -33 130t-83 110.5t-113.5 77t-124.5 28.5h-316q-59 0 -121.5 -28.5t-112.5 -76t-82 -111t-32 -130.5v-1190zM397 1628h109q10 35 28.5 47.5t40.5 12.5q25 0 56 -8.5t59.5 -23t52 -21.5t56.5 -7 q78 0 129 52.5t63 129.5h-117q-12 -39 -30.5 -53t-40.5 -14q-23 0 -50.5 11t-58.5 24q-29 12 -56.5 22t-62.5 10q-74 0 -120.5 -52t-57.5 -130zM518 856v512h336v-512h-336z" />
<glyph unicode="&#xc4;" d="M178 0h340v682h336v-682q16 -2 64 -2h100q55 0 105.5 1t72.5 1v1190q0 68 -33 130t-83 110.5t-113.5 77t-124.5 28.5h-316q-59 0 -121.5 -28.5t-112.5 -76t-82 -111t-32 -130.5v-1190zM360 1640h152v152h-152v-152zM518 856v512h336v-512h-336zM838 1640h151v152h-151 v-152z" />
<glyph unicode="&#xc5;" d="M178 0h340v682h336v-682q16 -2 64 -2h100q55 0 105.5 1t72.5 1v1190q0 68 -33 130t-83 110.5t-113.5 77t-124.5 28.5h-316q-59 0 -121.5 -28.5t-112.5 -76t-82 -111t-32 -130.5v-1190zM496 1825q0 -41 15 -77t43 -63.5t63.5 -44t76.5 -16.5q84 0 142.5 58.5t58.5 142.5 q0 41 -16.5 76.5t-44 63.5t-63.5 43t-77 15t-76.5 -15t-63.5 -43t-43 -63.5t-15 -76.5zM518 856v512h336v-512h-336zM590 1825q0 43 30.5 72.5t73.5 29.5t74 -29.5t31 -72.5t-31 -75t-74 -32t-73.5 32t-30.5 75z" />
<glyph unicode="&#xc6;" horiz-adv-x="1875" d="M172 0h340v682h342v-682h854v172h-514v510h342v174h-342v510h514v170h-1192q-61 0 -122.5 -27.5t-111 -76t-80 -109.5t-30.5 -129v-1194zM512 856v512h342v-512h-342z" />
<glyph unicode="&#xc7;" d="M172 346q0 -78 25.5 -141.5t71.5 -109.5t111.5 -70.5t143.5 -24.5h70v-127q0 -74 -44 -94.5t-116 -20.5v-141q98 0 167 8t111 36t60.5 78t18.5 136v125h61q72 0 135.5 25.5t110.5 71.5t73.5 109.5t26.5 139.5h-170q0 -39 -14.5 -71.5t-39 -55t-56 -36t-66.5 -13.5h-340 v1196h340q78 0 127 -46t49 -130h170q0 78 -26.5 142.5t-73.5 109.5t-110.5 69.5t-135.5 24.5h-328q-78 0 -143.5 -27.5t-111.5 -75t-71.5 -109.5t-25.5 -134v-844z" />
<glyph unicode="&#xc8;" horiz-adv-x="1193" d="M172 0h852v172h-512v510h342v174h-342v510h512v170h-852v-1536zM483 1796l185 -188h143l-184 188h-144z" />
<glyph unicode="&#xc9;" horiz-adv-x="1193" d="M172 0h852v172h-512v510h342v174h-342v510h512v170h-852v-1536zM483 1608h144l184 188h-143z" />
<glyph unicode="&#xca;" horiz-adv-x="1193" d="M172 0h852v172h-512v510h342v174h-342v510h512v170h-852v-1536zM340 1616h137l131 133l133 -133h140l-273 270z" />
<glyph unicode="&#xcb;" horiz-adv-x="1193" d="M172 0h852v172h-512v510h342v174h-342v510h512v170h-852v-1536zM289 1640h151v152h-151v-152zM766 1640h152v152h-152v-152z" />
<glyph unicode="&#xcc;" horiz-adv-x="1024" d="M340 1796l184 -188h144l-185 188h-143zM342 0h340v1536h-340v-1536z" />
<glyph unicode="&#xcd;" horiz-adv-x="1024" d="M342 0h340v1536h-340v-1536zM483 1608h144l184 188h-143z" />
<glyph unicode="&#xce;" horiz-adv-x="1024" d="M248 1616h137l131 133l133 -133h139l-272 270zM342 0h340v1536h-340v-1536z" />
<glyph unicode="&#xcf;" horiz-adv-x="1024" d="M186 1640h152v152h-152v-152zM342 0h340v1536h-340v-1536zM664 1640h151v152h-151v-152z" />
<glyph unicode="&#xd0;" d="M70 680h102v-680h674q68 0 131 28.5t111.5 76t77 111t28.5 132.5v840q0 70 -28.5 133t-77 111.5t-112 76t-130.5 27.5h-674v-682h-102v-174zM512 172v508h113v174h-113v512h342v-1194h-342z" />
<glyph unicode="&#xd1;" horiz-adv-x="1536" d="M172 0h170v897l942 -897h82v1536h-172v-889l-942 889h-80v-1536zM459 1628h108q10 35 28.5 47.5t41.5 12.5q25 0 55.5 -8.5t59 -23t52 -21.5t56.5 -7q78 0 129 52.5t64 129.5h-117q-12 -39 -30.5 -53t-41.5 -14t-50.5 11t-57.5 24q-29 12 -56.5 22t-62.5 10 q-74 0 -121 -52t-57 -130z" />
<glyph unicode="&#xd2;" d="M172 346q0 -70 28.5 -132t77 -110.5t110.5 -76t132 -27.5h326q70 0 132 27.5t110.5 76t77 110.5t28.5 132v844q0 66 -27.5 128t-75 110.5t-110.5 78t-135 29.5h-326q-72 0 -135 -29.5t-110.5 -78t-75 -111t-27.5 -127.5v-844zM391 1796l184 -188h144l-184 188h-144z M512 172v1194h342v-1194h-342z" />
<glyph unicode="&#xd3;" d="M172 346q0 -70 28.5 -132t77 -110.5t110.5 -76t132 -27.5h326q70 0 132 27.5t110.5 76t77 110.5t28.5 132v844q0 66 -27.5 128t-75 110.5t-110.5 78t-135 29.5h-326q-72 0 -135 -29.5t-110.5 -78t-75 -111t-27.5 -127.5v-844zM512 172v1194h342v-1194h-342zM606 1608h144 l184 188h-143z" />
<glyph unicode="&#xd4;" d="M172 346q0 -70 28.5 -132t77 -110.5t110.5 -76t132 -27.5h326q70 0 132 27.5t110.5 76t77 110.5t28.5 132v844q0 66 -27.5 128t-75 110.5t-110.5 78t-135 29.5h-326q-72 0 -135 -29.5t-110.5 -78t-75 -111t-27.5 -127.5v-844zM412 1616h137l131 133l133 -133h139 l-272 270zM512 172v1194h342v-1194h-342z" />
<glyph unicode="&#xd5;" d="M172 346q0 -70 28.5 -132t77 -110.5t110.5 -76t132 -27.5h326q70 0 132 27.5t110.5 76t77 110.5t28.5 132v844q0 66 -27.5 128t-75 110.5t-110.5 78t-135 29.5h-326q-72 0 -135 -29.5t-110.5 -78t-75 -111t-27.5 -127.5v-844zM408 1628h108q10 35 28.5 47.5t41.5 12.5 q25 0 55.5 -8.5t59 -23t52 -21.5t56.5 -7q78 0 129 52.5t63 129.5h-116q-12 -39 -30.5 -53t-41.5 -14t-50.5 11t-57.5 24q-29 12 -56.5 22t-62.5 10q-74 0 -121 -52t-57 -130zM512 172v1194h342v-1194h-342z" />
<glyph unicode="&#xd6;" d="M172 346q0 -70 28.5 -132t77 -110.5t110.5 -76t132 -27.5h326q70 0 132 27.5t110.5 76t77 110.5t28.5 132v844q0 66 -27.5 128t-75 110.5t-110.5 78t-135 29.5h-326q-72 0 -135 -29.5t-110.5 -78t-75 -111t-27.5 -127.5v-844zM360 1640h152v152h-152v-152zM512 172v1194 h342v-1194h-342zM838 1640h151v152h-151v-152z" />
<glyph unicode="&#xd7;" d="M172 0h340v512h342v-512h340v223q0 113 -28.5 186.5t-62.5 114.5t-63 58l-28 16l28 16q29 17 63 55t62.5 100t28.5 153v272h-340v-510h-342v510h-340v-272q0 -90 27.5 -152.5t60.5 -100.5t60 -55l28 -16l-28 -16q-27 -17 -60 -58t-60.5 -114.5t-27.5 -186.5v-223z" />
<glyph unicode="&#xd8;" d="M-43 121l131 -121l141 160l19 -24q18 -25 55 -56t90 -55.5t123 -24.5h344q74 0 139.5 27.5t113.5 75t77 109.5t29 130v844q0 10 -2.5 29.5t-4.5 33t-2 15.5l162 180l-135 115l-119 -134l-18 17q-17 18 -49.5 39.5t-80.5 39t-110 17.5h-344q-72 0 -135.5 -30.5t-109.5 -81 t-72.5 -114t-26.5 -126.5v-826zM512 172v303l365 414v-717h-365zM512 743v623h365v-211z" />
<glyph unicode="&#xd9;" d="M172 346q0 -66 27.5 -128t75 -110.5t111 -78t134.5 -29.5h326q72 0 135 29.5t110.5 78t75 111t27.5 127.5v1190h-340v-1366h-342v1366h-340v-1190zM422 1796l184 -188h144l-185 188h-143z" />
<glyph unicode="&#xda;" d="M172 346q0 -66 27.5 -128t75 -110.5t111 -78t134.5 -29.5h326q72 0 135 29.5t110.5 78t75 111t27.5 127.5v1190h-340v-1366h-342v1366h-340v-1190zM616 1608h144l184 188h-143z" />
<glyph unicode="&#xdb;" d="M172 346q0 -66 27.5 -128t75 -110.5t111 -78t134.5 -29.5h326q72 0 135 29.5t110.5 78t75 111t27.5 127.5v1190h-340v-1366h-342v1366h-340v-1190zM412 1616h137l131 133l133 -133h139l-272 270z" />
<glyph unicode="&#xdc;" d="M172 346q0 -66 27.5 -128t75 -110.5t111 -78t134.5 -29.5h326q72 0 135 29.5t110.5 78t75 111t27.5 127.5v1190h-340v-1366h-342v1366h-340v-1190zM360 1640h152v152h-152v-152zM838 1640h151v152h-151v-152z" />
<glyph unicode="&#xdd;" d="M172 1026l340 -338v-688h342v688l340 338v510h-340v-600l-172 -170l-170 170v600h-340v-510zM616 1608h144l184 188h-143z" />
<glyph unicode="&#xde;" d="M172 0h340v346h342q72 0 133.5 30t107.5 78t72.5 109.5t26.5 124.5v170q0 74 -28.5 136.5t-77 108.5t-109.5 71.5t-125 25.5h-344l2 336h-340v-1536zM512 516v514h342v-514h-342z" />
<glyph unicode="&#xdf;" horiz-adv-x="1536" d="M172 0h508v1366h344v-342h-162v-168l162 -2v-682h-170v-172h186q154 0 240 88t86 254v324q0 70 -27.5 121t-60.5 83.5t-60 47.5l-28 16l28 14q27 13 60 44.5t60.5 84.5t27.5 133v29q0 131 -88 214t-238 83h-370q-80 0 -141.5 -24.5t-103.5 -65.5t-62.5 -95.5 t-20.5 -111.5v-1067h-170v-172z" />
<glyph unicode="&#xe0;" d="M172 352q0 -80 27.5 -145.5t75 -111.5t109.5 -70.5t132 -24.5h678v844q0 66 -24.5 129t-70.5 112.5t-111.5 79t-147.5 29.5h-316q-180 0 -266 -85t-86 -216h166q0 66 42 98.5t148 32.5h326v-172h-338q-66 0 -127 -24.5t-109.5 -67.5t-78 -100.5t-29.5 -124.5v-183z M365 1638l288 -342h170l-288 342h-170zM512 172v510h342v-510h-342z" />
<glyph unicode="&#xe1;" d="M172 352q0 -80 27.5 -145.5t75 -111.5t109.5 -70.5t132 -24.5h678v844q0 66 -24.5 129t-70.5 112.5t-111.5 79t-147.5 29.5h-316q-180 0 -266 -85t-86 -216h166q0 66 42 98.5t148 32.5h326v-172h-338q-66 0 -127 -24.5t-109.5 -67.5t-78 -100.5t-29.5 -124.5v-183z M512 172v510h342v-510h-342zM549 1296h170l289 342h-170z" />
<glyph unicode="&#xe2;" d="M172 352q0 -80 27.5 -145.5t75 -111.5t109.5 -70.5t132 -24.5h678v844q0 66 -24.5 129t-70.5 112.5t-111.5 79t-147.5 29.5h-316q-180 0 -266 -85t-86 -216h166q0 66 42 98.5t148 32.5h326v-172h-338q-66 0 -127 -24.5t-109.5 -67.5t-78 -100.5t-29.5 -124.5v-183z M360 1382h172l144 146l145 -146h172l-317 314zM512 172v510h342v-510h-342z" />
<glyph unicode="&#xe3;" d="M172 352q0 -80 27.5 -145.5t75 -111.5t109.5 -70.5t132 -24.5h678v844q0 66 -24.5 129t-70.5 112.5t-111.5 79t-147.5 29.5h-316q-180 0 -266 -85t-86 -216h166q0 66 42 98.5t148 32.5h326v-172h-338q-66 0 -127 -24.5t-109.5 -67.5t-78 -100.5t-29.5 -124.5v-183z M252 1329h166q25 47 52.5 66.5t55.5 19.5q61 0 136 -45q70 -41 155 -41q106 0 188 65.5t107 194.5h-168q-27 -53 -53.5 -74.5t-54.5 -21.5q-35 0 -75 17.5t-77 37.5q-33 18 -71 29.5t-81 11.5q-41 0 -87 -18.5t-86 -53t-69.5 -83t-37.5 -105.5zM512 172v510h342v-510h-342z " />
<glyph unicode="&#xe4;" d="M172 352q0 -80 27.5 -145.5t75 -111.5t109.5 -70.5t132 -24.5h678v844q0 66 -24.5 129t-70.5 112.5t-111.5 79t-147.5 29.5h-316q-180 0 -266 -85t-86 -216h166q0 66 42 98.5t148 32.5h326v-172h-338q-66 0 -127 -24.5t-109.5 -67.5t-78 -100.5t-29.5 -124.5v-183z M311 1419h168v170h-168v-170zM512 172v510h342v-510h-342zM842 1419h168v170h-168v-170z" />
<glyph unicode="&#xe5;" d="M172 352q0 -80 27.5 -145.5t75 -111.5t109.5 -70.5t132 -24.5h678v844q0 66 -24.5 129t-70.5 112.5t-111.5 79t-147.5 29.5h-316q-180 0 -266 -85t-86 -216h166q0 66 42 98.5t148 32.5h326v-172h-338q-66 0 -127 -24.5t-109.5 -67.5t-78 -100.5t-29.5 -124.5v-183z M399 1632q0 -59 22.5 -110.5t60.5 -90t89.5 -61t110.5 -22.5q57 0 109.5 22.5t91.5 61t61.5 90t22.5 110.5q0 57 -22.5 109.5t-61.5 90.5t-91.5 60.5t-109.5 22.5q-59 0 -110.5 -22.5t-89.5 -60.5t-60.5 -90t-22.5 -110zM512 172v510h342v-510h-342zM522 1632q0 66 47 113 t113 47t113 -47t47 -113t-47 -114t-113 -48t-113 48t-47 114z" />
<glyph unicode="&#xe6;" horiz-adv-x="2048" d="M170 893h166q0 74 51 102.5t131 28.5h336v-172h-336q-72 0 -135.5 -26.5t-110.5 -71.5t-73.5 -104.5t-26.5 -125.5v-186q0 -72 27.5 -134.5t75 -107.5t109.5 -70.5t134 -25.5h1018q61 0 121.5 29.5t110 77t79 108.5t29.5 127h-166q0 -37 -15.5 -67.5t-41 -54t-58 -36 t-65.5 -12.5h-336v340h682v332q0 66 -29.5 128t-79 111.5t-110 80t-121.5 30.5h-324q-66 0 -111.5 -18.5t-72.5 -36.5q-27 18 -72 36.5t-102 18.5h-336q-162 0 -255 -80t-93 -221zM512 172v510h342v-510h-342zM1194 682v344h342v-344h-342z" />
<glyph unicode="&#xe7;" horiz-adv-x="1204" d="M172 352q0 -63 27.5 -126.5t75 -114t109.5 -81t134 -30.5v-127q0 -74 -43 -94.5t-115 -20.5v-141q109 0 177.5 15.5t108.5 47t54.5 79.5t14.5 116v125q59 8 115.5 41t99.5 82t69.5 110.5t26.5 128.5h-168q0 -37 -16.5 -70.5t-43 -60t-60 -43t-68.5 -16.5h-158v856h162 q35 0 68.5 -17.5t60 -45t43 -61.5t16.5 -68h168q0 68 -30.5 133t-80 116.5t-112 82t-127.5 30.5h-162q-59 0 -120.5 -30.5t-111.5 -80t-82 -113t-32 -130.5v-492z" />
<glyph unicode="&#xe8;" horiz-adv-x="1361" d="M172 352q0 -63 27.5 -126.5t75 -114t109.5 -81t134 -30.5h318q66 0 129 27.5t113 76t81 109.5t31 129h-168q0 -37 -16.5 -67.5t-43 -53t-61.5 -36t-72 -13.5h-317v340h678v332q0 66 -27.5 129t-75 112.5t-113 79t-138.5 29.5h-318q-70 0 -132 -29.5t-110.5 -79t-76 -113 t-27.5 -128.5v-492zM375 1638l289 -342h170l-289 342h-170zM512 682v344h336v-344h-336z" />
<glyph unicode="&#xe9;" horiz-adv-x="1361" d="M172 352q0 -63 27.5 -126.5t75 -114t109.5 -81t134 -30.5h318q66 0 129 27.5t113 76t81 109.5t31 129h-168q0 -37 -16.5 -67.5t-43 -53t-61.5 -36t-72 -13.5h-317v340h678v332q0 66 -27.5 129t-75 112.5t-113 79t-138.5 29.5h-318q-70 0 -132 -29.5t-110.5 -79t-76 -113 t-27.5 -128.5v-492zM512 682v344h336v-344h-336zM549 1296h170l289 342h-170z" />
<glyph unicode="&#xea;" horiz-adv-x="1361" d="M172 352q0 -63 27.5 -126.5t75 -114t109.5 -81t134 -30.5h318q66 0 129 27.5t113 76t81 109.5t31 129h-168q0 -37 -16.5 -67.5t-43 -53t-61.5 -36t-72 -13.5h-317v340h678v332q0 66 -27.5 129t-75 112.5t-113 79t-138.5 29.5h-318q-70 0 -132 -29.5t-110.5 -79t-76 -113 t-27.5 -128.5v-492zM360 1382h172l144 146l145 -146h172l-317 314zM512 682v344h336v-344h-336z" />
<glyph unicode="&#xeb;" horiz-adv-x="1361" d="M172 352q0 -63 27.5 -126.5t75 -114t109.5 -81t134 -30.5h318q66 0 129 27.5t113 76t81 109.5t31 129h-168q0 -37 -16.5 -67.5t-43 -53t-61.5 -36t-72 -13.5h-317v340h678v332q0 66 -27.5 129t-75 112.5t-113 79t-138.5 29.5h-318q-70 0 -132 -29.5t-110.5 -79t-76 -113 t-27.5 -128.5v-492zM322 1419h167v170h-167v-170zM512 682v344h336v-344h-336zM852 1419h168v170h-168v-170z" />
<glyph unicode="&#xec;" horiz-adv-x="681" d="M37 1638l289 -342h170l-289 342h-170zM172 0h340v1194h-340v-1194z" />
<glyph unicode="&#xed;" horiz-adv-x="681" d="M172 0h340v1194h-340v-1194zM252 1296h170l289 342h-170z" />
<glyph unicode="&#xee;" horiz-adv-x="681" d="M23 1382h172l143 146l145 -146h172l-317 314zM172 0h340v1194h-340v-1194z" />
<glyph unicode="&#xef;" horiz-adv-x="681" d="M-8 1419h168v170h-168v-170zM172 0h340v1194h-340v-1194zM522 1419h168v170h-168v-170z" />
<glyph unicode="&#xf0;" d="M172 352q0 -74 25.5 -138t71.5 -111.5t109.5 -75t141.5 -27.5h324q78 0 142.5 27.5t110.5 75t71.5 112t25.5 137.5v1016q0 37 -15.5 71t-41 58.5t-60.5 39.5t-71 15h-277l9 18q10 17 17 31.5t9 16.5l-127 53l-62 -119h-241v-178h151l-32 -65l127 -54l61 119h213v-180 h-334q-74 0 -137.5 -28.5t-110.5 -77t-73.5 -112t-26.5 -132.5v-492zM512 172v852h342v-852h-342z" />
<glyph unicode="&#xf1;" d="M172 0h340v1024h342v-1024h340v844q0 66 -27.5 129t-76 112.5t-112.5 79t-138 29.5h-668v-1194zM242 1329h166q25 47 52 66.5t56 19.5q61 0 135 -45q70 -41 156 -41q106 0 188 65.5t107 194.5h-168q-27 -53 -53.5 -74.5t-55.5 -21.5q-35 0 -74.5 17.5t-76.5 37.5 q-33 18 -71 29.5t-81 11.5q-41 0 -87 -18.5t-86 -53t-69.5 -83t-37.5 -105.5z" />
<glyph unicode="&#xf2;" d="M172 352q0 -74 25.5 -138t71.5 -111.5t109.5 -75t141.5 -27.5h324q78 0 142.5 27.5t110.5 75t71.5 112t25.5 137.5v492q0 70 -25.5 133t-71.5 111.5t-110.5 77t-142.5 28.5h-324q-74 0 -137.5 -28.5t-110.5 -77t-73.5 -112t-26.5 -132.5v-492zM334 1638l289 -342h170 l-289 342h-170zM512 172v852h342v-852h-342z" />
<glyph unicode="&#xf3;" d="M172 352q0 -74 25.5 -138t71.5 -111.5t109.5 -75t141.5 -27.5h324q78 0 142.5 27.5t110.5 75t71.5 112t25.5 137.5v492q0 70 -25.5 133t-71.5 111.5t-110.5 77t-142.5 28.5h-324q-74 0 -137.5 -28.5t-110.5 -77t-73.5 -112t-26.5 -132.5v-492zM512 172v852h342v-852h-342 zM549 1296h170l289 342h-170z" />
<glyph unicode="&#xf4;" d="M172 352q0 -74 25.5 -138t71.5 -111.5t109.5 -75t141.5 -27.5h324q78 0 142.5 27.5t110.5 75t71.5 112t25.5 137.5v492q0 70 -25.5 133t-71.5 111.5t-110.5 77t-142.5 28.5h-324q-74 0 -137.5 -28.5t-110.5 -77t-73.5 -112t-26.5 -132.5v-492zM360 1382h172l144 146 l145 -146h172l-317 314zM512 172v852h342v-852h-342z" />
<glyph unicode="&#xf5;" d="M172 352q0 -74 25.5 -138t71.5 -111.5t109.5 -75t141.5 -27.5h324q78 0 142.5 27.5t110.5 75t71.5 112t25.5 137.5v492q0 70 -25.5 133t-71.5 111.5t-110.5 77t-142.5 28.5h-324q-74 0 -137.5 -28.5t-110.5 -77t-73.5 -112t-26.5 -132.5v-492zM262 1329h166 q25 47 52.5 66.5t56.5 19.5q61 0 135 -45q70 -41 155 -41q106 0 188.5 65.5t106.5 194.5h-168q-27 -53 -53.5 -74.5t-54.5 -21.5q-35 0 -75 17.5t-77 37.5q-33 18 -70.5 29.5t-80.5 11.5q-41 0 -87 -18.5t-86 -53t-70 -83t-38 -105.5zM512 172v852h342v-852h-342z" />
<glyph unicode="&#xf6;" d="M172 352q0 -74 25.5 -138t71.5 -111.5t109.5 -75t141.5 -27.5h324q78 0 142.5 27.5t110.5 75t71.5 112t25.5 137.5v492q0 70 -25.5 133t-71.5 111.5t-110.5 77t-142.5 28.5h-324q-74 0 -137.5 -28.5t-110.5 -77t-73.5 -112t-26.5 -132.5v-492zM322 1419h167v170h-167 v-170zM512 172v852h342v-852h-342zM852 1419h168v170h-168v-170z" />
<glyph unicode="&#xf7;" horiz-adv-x="1193" d="M172 682h852v172h-852v-172zM512 342h168v170h-168v-170zM512 1024h168v170h-168v-170z" />
<glyph unicode="&#xf8;" d="M-27 152l142 -158l139 125l16 -19q15 -18 48.5 -40.5t83.5 -41t122 -18.5h324q74 0 136.5 26.5t109.5 73.5t73.5 110.5t26.5 135.5v490q0 49 -6 76l-6 26l166 145l-150 154l-133 -119q-2 2 -24.5 19.5t-74 37t-118.5 19.5h-324q-74 0 -138 -27.5t-112.5 -75t-75 -110.5 t-26.5 -137v-518zM512 172v174l342 301v-475h-342zM512 629v395h342v-94z" />
<glyph unicode="&#xf9;" d="M172 346q0 -72 26.5 -135.5t75 -110.5t112.5 -73.5t138 -26.5h670v1194h-340v-1024h-342v1024h-340v-848zM365 1638l288 -342h170l-288 342h-170z" />
<glyph unicode="&#xfa;" d="M172 346q0 -72 26.5 -135.5t75 -110.5t112.5 -73.5t138 -26.5h670v1194h-340v-1024h-342v1024h-340v-848zM549 1296h170l289 342h-170z" />
<glyph unicode="&#xfb;" d="M172 346q0 -72 26.5 -135.5t75 -110.5t112.5 -73.5t138 -26.5h670v1194h-340v-1024h-342v1024h-340v-848zM360 1382h172l144 146l145 -146h172l-317 314z" />
<glyph unicode="&#xfc;" d="M172 346q0 -72 26.5 -135.5t75 -110.5t112.5 -73.5t138 -26.5h670v1194h-340v-1024h-342v1024h-340v-848zM322 1419h167v170h-167v-170zM852 1419h168v170h-168v-170z" />
<glyph unicode="&#xfd;" d="M172 -70q0 -66 30.5 -127t80 -108t113 -76t128.5 -29h316q66 0 129 31t113.5 80t81 112.5t30.5 129.5v1251h-340v-952h-342v952h-340v-776q0 -68 27.5 -130.5t76 -109.5t112 -75.5t136.5 -28.5h330v-312h-326q-35 0 -69.5 13.5t-61 36t-43 53.5t-16.5 65h-166zM590 1296 h170l289 342h-170z" />
<glyph unicode="&#xfe;" d="M172 -342h340v342h332q80 0 144.5 30.5t110.5 81t70.5 114t24.5 126.5v492q0 68 -26.5 130t-73.5 111.5t-111.5 79t-138.5 29.5h-332v342h-340v-1878zM512 172v852h342v-852h-342z" />
<glyph unicode="&#xff;" d="M172 -70q0 -66 30.5 -127t80 -108t113 -76t128.5 -29h316q66 0 129 31t113.5 80t81 112.5t30.5 129.5v1251h-340v-952h-342v952h-340v-776q0 -68 27.5 -130.5t76 -109.5t112 -75.5t136.5 -28.5h330v-312h-326q-35 0 -69.5 13.5t-61 36t-43 53.5t-16.5 65h-166zM322 1419 h167v170h-167v-170zM852 1419h168v170h-168v-170z" />
<glyph unicode="&#x152;" horiz-adv-x="1875" d="M172 352q0 -70 27.5 -133t75 -112.5t110.5 -78t135 -28.5h1188v170h-514v514h342v176h-342v506h514v170h-1188q-74 0 -137.5 -30.5t-110.5 -80t-73.5 -113t-26.5 -126.5v-834zM510 170v1196h344v-1196h-344z" />
<glyph unicode="&#x153;" horiz-adv-x="2048" d="M172 346q0 -74 24.5 -137.5t70.5 -109.5t109.5 -72.5t143.5 -26.5h328q74 0 122 23.5t68 35.5q20 -14 65.5 -36.5t104.5 -22.5h320q72 0 135 31.5t110.5 83t75 117t27.5 135.5h-166q0 -37 -13.5 -72t-39 -62.5t-60 -44t-77.5 -16.5h-326v340h682v332q0 66 -28.5 129 t-77 113.5t-111 81t-131.5 30.5h-320q-66 0 -110 -23.5t-64 -39.5q-20 16 -68 37.5t-118 21.5h-328q-70 0 -133 -29.5t-110.5 -79t-76 -113t-28.5 -128.5v-498zM512 172v852h342v-852h-342zM1194 682v342h342v-342h-342z" />
<glyph unicode="&#x178;" d="M172 1026l340 -338v-688h342v688l340 338v510h-340v-600l-172 -170l-170 170v600h-340v-510zM360 1640h152v152h-152v-152zM838 1640h151v152h-151v-152z" />
<glyph unicode="&#x2c6;" horiz-adv-x="1081" d="M141 1364h215l181 182l180 -182h217l-397 393z" />
<glyph unicode="&#x2dc;" horiz-adv-x="1081" d="M119 1329h166q25 47 52.5 66.5t55.5 19.5q61 0 135 -45q70 -41 156 -41q106 0 188 65.5t107 194.5h-168q-27 -53 -53.5 -74.5t-55.5 -21.5q-35 0 -74.5 17.5t-76.5 37.5q-33 18 -71 29.5t-81 11.5q-41 0 -87 -18.5t-86 -53t-69.5 -83t-37.5 -105.5z" />
<glyph unicode="&#x2000;" horiz-adv-x="1011" />
<glyph unicode="&#x2001;" horiz-adv-x="2023" />
<glyph unicode="&#x2002;" horiz-adv-x="1011" />
<glyph unicode="&#x2003;" horiz-adv-x="2023" />
<glyph unicode="&#x2004;" horiz-adv-x="674" />
<glyph unicode="&#x2005;" horiz-adv-x="505" />
<glyph unicode="&#x2006;" horiz-adv-x="337" />
<glyph unicode="&#x2007;" horiz-adv-x="337" />
<glyph unicode="&#x2008;" horiz-adv-x="252" />
<glyph unicode="&#x2009;" horiz-adv-x="404" />
<glyph unicode="&#x200a;" horiz-adv-x="112" />
<glyph unicode="&#x2010;" horiz-adv-x="1193" d="M172 680h852v174h-852v-174z" />
<glyph unicode="&#x2011;" horiz-adv-x="1193" d="M172 680h852v174h-852v-174z" />
<glyph unicode="&#x2012;" horiz-adv-x="1193" d="M172 680h852v174h-852v-174z" />
<glyph unicode="&#x2013;" horiz-adv-x="1024" d="M172 682h682v172h-682v-172z" />
<glyph unicode="&#x2014;" horiz-adv-x="1708" d="M172 682h1364v172h-1364v-172z" />
<glyph unicode="&#x2018;" horiz-adv-x="681" d="M172 909h340v344h-168v119l137 131v94h-137l-172 -167v-521z" />
<glyph unicode="&#x2019;" horiz-adv-x="681" d="M172 1272h172v-125l-141 -135v-94h141l176 172v530h-348v-348z" />
<glyph unicode="&#x201a;" horiz-adv-x="681" d="M172 227h166v-121l-135 -131v-94h135l174 170v518h-340v-342z" />
<glyph unicode="&#x201c;" horiz-adv-x="1193" d="M172 909h340v344h-168v119l137 131v94h-137l-172 -167v-521zM682 909h342v344h-168v119l135 131v94h-135l-174 -167v-521z" />
<glyph unicode="&#x201d;" horiz-adv-x="1193" d="M172 1272h172v-125l-141 -135v-94h141l176 172v530h-348v-348zM682 1272h174v-125l-141 -135v-94h141l178 172v530h-352v-348z" />
<glyph unicode="&#x201e;" horiz-adv-x="1193" d="M172 227h166v-121l-135 -131v-94h135l174 170v518h-340v-342zM682 227h170v-121l-137 -131v-94h137l172 170v518h-342v-342z" />
<glyph unicode="&#x2022;" horiz-adv-x="1193" d="M147 795q0 -92 36 -174t97.5 -143.5t144.5 -97.5t175 -36t175 36t144.5 97.5t97.5 143t36 174.5q0 92 -36 174t-97.5 143.5t-144.5 97t-175 35.5t-175 -35.5t-144.5 -97t-97.5 -143.5t-36 -174z" />
<glyph unicode="&#x2026;" horiz-adv-x="2390" d="M342 0h340v342h-340v-342zM1024 0h342v342h-342v-342zM1708 0h340v342h-340v-342z" />
<glyph unicode="&#x202f;" horiz-adv-x="404" />
<glyph unicode="&#x2039;" horiz-adv-x="1144" d="M100 643l629 -627h283l-625 627l604 596h-295z" />
<glyph unicode="&#x203a;" horiz-adv-x="1144" d="M170 1247l627 -629l-598 -593h290l592 593l-628 629h-283z" />
<glyph unicode="&#x205f;" horiz-adv-x="505" />
<glyph unicode="&#x2122;" horiz-adv-x="2011" d="M184 1425h170v-548h170v548h170v168h-510v-168zM891 877h166v450l262 -270l264 274v-454h170v716h-170l-264 -293l-262 293h-166v-716z" />
<glyph unicode="&#x25fc;" horiz-adv-x="1198" d="M0 0v1198h1198v-1198h-1198z" />
</font>
</defs>
</svg>
